<svg xmlns="http://www.w3.org/2000/svg" viewBox="0 0 1600 600" preserveAspectRatio="xMidYMid slice">
  <defs>
    <linearGradient id="sky" x1="0" x2="1" y1="0" y2="1">
      <stop stop-color="#2f6f78" offset="0"/>
      <stop stop-color="#f2b05e" offset="1"/>
    </linearGradient>
    <linearGradient id="hill" x1="0" x2="1">
      <stop stop-color="#254f3e" offset="0"/>
      <stop stop-color="#7a8f51" offset="1"/>
    </linearGradient>
  </defs>
  <rect width="1600" height="600" fill="url(#sky)"/>
  <circle cx="1250" cy="130" r="80" fill="#ffe2a0" opacity="0.9"/>
  <path d="M0 385 C240 260 390 340 585 250 C800 150 1010 285 1215 210 C1400 145 1505 205 1600 175 L1600 600 L0 600 Z" fill="#254f3e" opacity="0.95"/>
  <path d="M0 465 C220 370 430 425 620 345 C815 260 1015 415 1240 315 C1405 245 1510 300 1600 260 L1600 600 L0 600 Z" fill="url(#hill)" opacity="0.98"/>
  <path d="M0 520 C250 500 350 470 570 505 C760 535 910 485 1090 505 C1300 530 1450 500 1600 515 L1600 600 L0 600 Z" fill="#f6d49b" opacity="0.7"/>
  <g transform="translate(920 250)">
    <rect x="0" y="120" width="260" height="140" fill="#874c32"/>
    <rect x="35" y="70" width="55" height="190" fill="#653926"/>
    <rect x="165" y="40" width="60" height="220" fill="#653926"/>
    <path d="M-15 120 L130 10 L275 120 Z" fill="#b65f35"/>
    <rect x="105" y="170" width="52" height="90" fill="#2f201b"/>
    <circle cx="62" cy="125" r="13" fill="#f7cf8f"/>
    <circle cx="195" cy="125" r="13" fill="#f7cf8f"/>
  </g>
  <path d="M0 560 C280 540 420 565 690 545 C980 520 1180 560 1600 535 L1600 600 L0 600 Z" fill="#335c73" opacity="0.35"/>
</svg>
